HIERARCHY
ROOT Hips
{
	OFFSET	0.00	0.00	0.00
	CHANNELS 6 Xposition Yposition Zposition Zrotation Xrotation Yrotation
	JOINT LeftUpLeg
	{
		OFFSET	 0.126116	-0.014019	-0.065224
		CHANNELS 3 Zrotation Xrotation Yrotation
		JOINT LeftLeg
		{
			OFFSET	 0.000000	 0.000000	 0.569914
			CHANNELS 3 Zrotation Xrotation Yrotation
			JOINT LeftFoot
			{
				OFFSET	 0.000000	 0.000000	 0.544423
				CHANNELS 3 Zrotation Xrotation Yrotation
				JOINT LeftToeBase
				{
					OFFSET	 0.000000	 0.000000	 0.207117
					CHANNELS 3 Zrotation Xrotation Yrotation
					End Site
					{
						OFFSET	 0.000000	 0.000000	 0.207117
					}
				}
			}
		}
	}
	JOINT RightUpLeg
	{
		OFFSET	-0.124023	-0.008373	-0.065224
		CHANNELS 3 Zrotation Xrotation Yrotation
		JOINT RightLeg
		{
			OFFSET	 0.000000	 0.000000	 0.570047
			CHANNELS 3 Zrotation Xrotation Yrotation
			JOINT RightFoot
			{
				OFFSET	 0.000000	 0.000000	 0.544354
				CHANNELS 3 Zrotation Xrotation Yrotation
				JOINT RightToeBase
				{
					OFFSET	 0.000000	 0.000000	 0.207540
					CHANNELS 3 Zrotation Xrotation Yrotation
					End Site
					{
						OFFSET	 0.000000	 0.000000	 0.207540
					}
				}
			}
		}
	}
	JOINT Spine
	{
		OFFSET	 0.000184	-0.007763	 0.117403
		CHANNELS 3 Zrotation Xrotation Yrotation
		JOINT Spine1
		{
			OFFSET	 0.000000	 0.000000	 0.137269
			CHANNELS 3 Zrotation Xrotation Yrotation
			JOINT Spine2
			{
				OFFSET	 0.000000	 0.000000	 0.156879
				CHANNELS 3 Zrotation Xrotation Yrotation
				JOINT LeftShoulder
				{
					OFFSET	 0.080501	-0.002496	 0.160144
					CHANNELS 3 Zrotation Xrotation Yrotation
					JOINT LeftArm
					{
						OFFSET	 0.000000	 0.000000	 0.164363
						CHANNELS 3 Zrotation Xrotation Yrotation
						JOINT LeftForeArm
						{
							OFFSET	 0.000000	 0.000000	 0.364576
							CHANNELS 3 Zrotation Xrotation Yrotation
							JOINT LeftHand
							{
								OFFSET	 0.000000	 0.000000	 0.360812
								CHANNELS 3 Zrotation Xrotation Yrotation
								JOINT LeftHandIndex1
								{
									OFFSET	 0.000000	 0.000000	 0.086006
									CHANNELS 3 Zrotation Xrotation Yrotation
									JOINT LeftHandIndex2
									{
										OFFSET	 0.000000	 0.000000	 0.047236
										CHANNELS 3 Zrotation Xrotation Yrotation
										JOINT LeftHandIndex3
										{
											OFFSET	-0.004284	-0.000551	 0.038166
											CHANNELS 3 Zrotation Xrotation Yrotation
											End Site
											{
												OFFSET	-0.004284	-0.000551	 0.038166
											}
										}
									}
								}
							}
						}
					}
				}
				JOINT Neck
				{
					OFFSET	 0.000000	 0.000000	 0.176489
					CHANNELS 3 Zrotation Xrotation Yrotation
					JOINT Head
					{
						OFFSET	 0.000000	-0.001747	 0.077940
						CHANNELS 3 Zrotation Xrotation Yrotation
						End Site
						{
							OFFSET	 0.000000	-0.001747	 0.077940
						}
					}
				}
				JOINT RightShoulder
				{
					OFFSET	-0.080363	 0.000306	 0.159706
					CHANNELS 3 Zrotation Xrotation Yrotation
					JOINT RightArm
					{
						OFFSET	 0.000000	 0.000000	 0.164196
						CHANNELS 3 Zrotation Xrotation Yrotation
						JOINT RightForeArm
						{
							OFFSET	 0.000000	 0.000000	 0.365611
							CHANNELS 3 Zrotation Xrotation Yrotation
							JOINT RightHand
							{
								OFFSET	 0.000000	 0.000000	 0.360648
								CHANNELS 3 Zrotation Xrotation Yrotation
								JOINT RightHandIndex1
								{
									OFFSET	 0.000000	 0.000000	 0.069977
									CHANNELS 3 Zrotation Xrotation Yrotation
									JOINT RightHandIndex2
									{
										OFFSET	 0.000000	 0.000000	 0.052305
										CHANNELS 3 Zrotation Xrotation Yrotation
										JOINT RightHandIndex3
										{
											OFFSET	 0.009002	-0.000782	 0.042196
											CHANNELS 3 Zrotation Xrotation Yrotation
											End Site
											{
												OFFSET	 0.009002	-0.000782	 0.042196
											}
										}
									}
								}
							}
						}
					}
				}
			}
		}
	}
}
MOTION
Frames:    7
Frame Time: 0.03333334
-0.000390	 0.019747	 1.271159	 0.003670	 0.009194	-0.052813	-11.469580	-1.645606	 179.752500	 1.470674	-12.162840	-0.710428	-4.269591	 71.622020	-2.120175	-2.385833	 28.452760	 0.000004	 11.341900	-2.155796	-179.622100	-1.449423	-12.782120	 0.734053	 4.236514	 71.757260	 1.993061	 2.384658	 28.388730	 0.000004	 1.263273	 2.713415	 0.001822	 0.656235	 3.681541	 0.330569	-1.971567	-4.682934	-0.466128	-91.776140	 78.527470	 180.000000	 66.263360	 43.127510	-54.844280	-7.732283	 4.420878	-11.121590	-30.134910	-9.904167	-4.415701	-2.635965	 4.993658	 6.788941	-5.165319	 0.784187	 3.516649	-5.225038	 0.466231	 0.424329	-0.000002	-3.783157	-0.089647	-1.904783	 5.018610	 0.083468	 89.782110	 78.203920	 180.000000	-63.913170	 41.734230	 54.361350	 7.148745	 5.760245	 13.416270	 30.229430	-10.788030	 8.988987	 6.112037	 4.509576	-0.364401	 4.968462	 1.518543	-9.347576	 5.168945	 0.703820	 2.021906
-0.000389	 0.019755	 1.271093	 0.003671	 0.009192	-0.052811	-11.540180	-1.690350	 179.761600	 1.469485	-12.256600	-0.716076	-4.287197	 71.671770	-2.101701	-2.385833	 28.452760	 0.000004	 11.412600	-2.198231	-179.630600	-1.448249	-12.871490	 0.739363	 4.254071	 71.804560	 1.974646	 2.384658	 28.388730	 0.000004	 1.263278	 2.713969	 0.001803	 0.656220	 3.679649	 0.330593	-1.971545	-4.680514	-0.466065	-91.776150	 78.527490	 180.000000	 66.229400	 43.141160	-54.800930	-7.722484	 4.427229	-11.137840	-30.146460	-10.051290	-4.417687	-2.635965	 4.993658	 6.788941	-5.165319	 0.784187	 3.516649	-5.225038	 0.466231	 0.424329	-0.000002	-3.783157	-0.089647	-1.904806	 5.019773	 0.083488	 89.782100	 78.203870	 180.000000	-63.826030	 41.345660	 54.758270	 6.641577	 5.615867	 13.412180	 30.269970	-11.289530	 8.792176	 6.112037	 4.509576	-0.364401	 4.968462	 1.518543	-9.347576	 5.168945	 0.703820	 2.021906
-0.000387	 0.019764	 1.271035	 0.003678	 0.009191	-0.052770	-11.626810	-1.744664	 179.772500	 1.468023	-12.370470	-0.722942	-4.308683	 71.732180	-2.079148	-2.385833	 28.452760	 0.000004	 11.499320	-2.249654	-179.641100	-1.446805	-12.979820	 0.745807	 4.275414	 71.861920	 1.952221	 2.384658	 28.388730	 0.000004	 1.263279	 2.714646	 0.001762	 0.656196	 3.677302	 0.330589	-1.971479	-4.677536	-0.465973	-91.776150	 78.527470	 180.000000	 66.168510	 43.162710	-54.724590	-7.706660	 4.434990	-11.157670	-30.164190	-10.277130	-4.420821	-2.635965	 4.993658	 6.788941	-5.165319	 0.784187	 3.516649	-5.225038	 0.466231	 0.424329	-0.000002	-3.783157	-0.089647	-1.904807	 5.021182	 0.083512	 89.782100	 78.203920	 180.000000	-63.647030	 40.706950	 55.625660	 5.888371	 5.276110	 13.101620	 30.417650	-12.069200	 8.490643	 6.112037	 4.509576	-0.364401	 4.968462	 1.518543	-9.347576	 5.168945	 0.703820	 2.021906
-0.000383	 0.019773	 1.271003	 0.003681	 0.009184	-0.052763	-11.703160	-1.792238	 179.782200	 1.466729	-12.470200	-0.728956	-4.327592	 71.785110	-2.059326	-2.385833	 28.452760	 0.000004	 11.575730	-2.294809	-179.650200	-1.445530	-13.074950	 0.751464	 4.294223	 71.912320	 1.932461	 2.384658	 28.388730	 0.000004	 1.263271	 2.715247	 0.001740	 0.656172	 3.675256	 0.330590	-1.971422	-4.674910	-0.465898	-91.776250	 78.527430	-179.999900	 66.093600	 43.183400	-54.629120	-7.689354	 4.442616	-11.177170	-30.183180	-10.518410	-4.424242	-2.635965	 4.993658	 6.788941	-5.165319	 0.784187	 3.516649	-5.225038	 0.466231	 0.424329	-0.000002	-3.783157	-0.089647	-1.904799	 5.022394	 0.083532	 89.782110	 78.203890	 180.000000	-63.268580	 40.026370	 56.621530	 5.099333	 4.912441	 12.723320	 30.566580	-12.843660	 8.202284	 6.112037	 4.509576	-0.364401	 4.968462	 1.518543	-9.347576	 5.168945	 0.703820	 2.021906
-0.000379	 0.019786	 1.270985	 0.003686	 0.009184	-0.052755	-11.789030	-1.845268	 179.793000	 1.465271	-12.581340	-0.735668	-4.348768	 71.844120	-2.037114	-2.385833	 28.452760	 0.000004	 11.661720	-2.345222	-179.660500	-1.444098	-13.181130	 0.757787	 4.315395	 71.968570	 1.910262	 2.384658	 28.388730	 0.000004	 1.263256	 2.715920	 0.001716	 0.656138	 3.672928	 0.330630	-1.971354	-4.671959	-0.465822	-91.776160	 78.527450	 180.000000	 65.979290	 43.204350	-54.477990	-7.666169	 4.453696	-11.205490	-30.208360	-10.838290	-4.428932	-2.635965	 4.993658	 6.788941	-5.165319	 0.784187	 3.516649	-5.225038	 0.466231	 0.424329	-0.000002	-3.783157	-0.089647	-1.904778	 5.023767	 0.083553	 89.782110	 78.203900	 180.000000	-62.391480	 38.982950	 57.620940	 3.768691	 4.648839	 12.933530	 30.321850	-13.878740	 7.656245	 6.112037	 4.509576	-0.364401	 4.968462	 1.518543	-9.347576	 5.168945	 0.703820	 2.021906
-0.000375	 0.019803	 1.270970	 0.003687	 0.009182	-0.052757	-11.871810	-1.895886	 179.803500	 1.463869	-12.687450	-0.742078	-4.369074	 71.900470	-2.015831	-2.385833	 28.452760	 0.000004	 11.744560	-2.393292	-179.670400	-1.442713	-13.282430	 0.763827	 4.335639	 72.022260	 1.888988	 2.384658	 28.388730	 0.000004	 1.263233	 2.716573	 0.001698	 0.656105	 3.670691	 0.330644	-1.971277	-4.669102	-0.465735	-91.776140	 78.527450	 180.000000	 65.841410	 43.221850	-54.279410	-7.729478	 4.467738	-11.241450	-30.146400	-11.184800	-4.419761	-2.635965	 4.993658	 6.788941	-5.165319	 0.784187	 3.516649	-5.225038	 0.466231	 0.424329	-0.000002	-3.783157	-0.089647	-1.904762	 5.025100	 0.083575	 89.782230	 78.203900	 179.999900	-60.753210	 37.558200	 57.856190	 1.901479	 4.837847	 14.912350	 29.618100	-15.053510	 6.807060	 6.112037	 4.509576	-0.364401	 4.968462	 1.518543	-9.347576	 5.168945	 0.703820	 2.021906
-0.000370	 0.019829	 1.270981	 0.003686	 0.009174	-0.052752	-11.954310	-1.946092	 179.813800	 1.462472	-12.792690	-0.748441	-4.389337	 71.956360	-1.994605	-2.385833	 28.452760	 0.000004	 11.827180	-2.440972	-179.680200	-1.441330	-13.382890	 0.769818	 4.355873	 72.075510	 1.867782	 2.384658	 28.388730	 0.000004	 1.263210	 2.717220	 0.001679	 0.656071	 3.668478	 0.330659	-1.971185	-4.666276	-0.465651	-91.776190	 78.527490	-180.000000	 65.649660	 43.222910	-54.008420	-7.726415	 4.482931	-11.280340	-30.152470	-11.586330	-4.421900	-2.635965	 4.993658	 6.788941	-5.165319	 0.784187	 3.516649	-5.225038	 0.466231	 0.424329	-0.000002	-3.783157	-0.089647	-1.904722	 5.026441	 0.083596	 89.782190	 78.203920	 179.999900	-58.398800	 35.898740	 59.084880	-0.152554	 4.570032	 16.011160	 28.618230	-16.272400	 5.779513	 6.112037	 4.509576	-0.364401	 4.968462	 1.518543	-9.347576	 5.168945	 0.703820	 2.021906
